<?xml version="1.0" encoding="UTF-8" standalone="no"?>
<!DOCTYPE svg PUBLIC "-//W3C//DTD SVG 1.1//EN" "http://www.w3.org/Graphics/SVG/1.1/DTD/svg11.dtd">
<svg version="1.1" xmlns="http://www.w3.org/2000/svg" xmlns:xlink="http://www.w3.org/1999/xlink" preserveAspectRatio="xMidYMid meet" viewBox="0 0 640 640" width="640" height="640"><defs><path d="M158.95 200L460 200L460 300L158.95 300L158.95 620L20 620L20 20L460 20L460 120L158.95 120L158.95 120L158.95 200Z" id="dVunynWtq"></path><path d="M200 520L487.37 520L487.37 440L200 440L200 340L487.37 340L487.37 20L620 20L620 620L200 620L200 620L200 520Z" id="bdXfZy5FU"></path></defs><g><g><g><g><filter id="shadow12727073" x="-5" y="-5" width="495" height="655" filterUnits="userSpaceOnUse" primitiveUnits="userSpaceOnUse"><feFlood></feFlood><feComposite in2="SourceAlpha" operator="in"></feComposite><feGaussianBlur stdDeviation="2.24"></feGaussianBlur><feOffset dx="5" dy="5" result="afterOffset"></feOffset><feFlood flood-color="#000000" flood-opacity="0.5"></feFlood><feComposite in2="afterOffset" operator="in"></feComposite><feMorphology operator="dilate" radius="5"></feMorphology><feComposite in2="SourceAlpha" operator="out"></feComposite></filter><path d="M158.95 200L460 200L460 300L158.95 300L158.95 620L20 620L20 20L460 20L460 120L158.95 120L158.95 120L158.95 200Z" id="bdQNZEEWt" fill="white" fill-opacity="1" filter="url(#shadow12727073)"></path></g><use xlink:href="#dVunynWtq" opacity="1" fill="#2cbe13" fill-opacity="1"></use><g><filter id="shadow4595568" x="11" y="11" width="459" height="619" filterUnits="userSpaceOnUse" primitiveUnits="userSpaceOnUse"><feFlood></feFlood><feComposite in2="SourceAlpha" operator="out"></feComposite><feGaussianBlur stdDeviation="1"></feGaussianBlur><feOffset dx="1" dy="1" result="afterOffset"></feOffset><feFlood flood-color="#ffffff" flood-opacity="0.8"></feFlood><feComposite in2="afterOffset" operator="in"></feComposite><feMorphology operator="dilate" radius="1"></feMorphology><feComposite in2="SourceAlpha" operator="in"></feComposite></filter><path d="M158.95 200L460 200L460 300L158.95 300L158.95 620L20 620L20 20L460 20L460 120L158.95 120L158.95 120L158.95 200Z" id="c5f6erVZLu" fill="white" fill-opacity="1" filter="url(#shadow4595568)"></path></g></g><g><g><filter id="shadow2461385" x="175" y="-5" width="475" height="655" filterUnits="userSpaceOnUse" primitiveUnits="userSpaceOnUse"><feFlood></feFlood><feComposite in2="SourceAlpha" operator="in"></feComposite><feGaussianBlur stdDeviation="2.24"></feGaussianBlur><feOffset dx="5" dy="5" result="afterOffset"></feOffset><feFlood flood-color="#000000" flood-opacity="0.5"></feFlood><feComposite in2="afterOffset" operator="in"></feComposite><feMorphology operator="dilate" radius="5"></feMorphology><feComposite in2="SourceAlpha" operator="out"></feComposite></filter><path d="M200 520L487.37 520L487.37 440L200 440L200 340L487.37 340L487.37 20L620 20L620 620L200 620L200 620L200 520Z" id="bgEiBSrLt" fill="white" fill-opacity="1" filter="url(#shadow2461385)"></path></g><use xlink:href="#bdXfZy5FU" opacity="1" fill="#101780" fill-opacity="1"></use><g><filter id="shadow11371802" x="191" y="11" width="439" height="619" filterUnits="userSpaceOnUse" primitiveUnits="userSpaceOnUse"><feFlood></feFlood><feComposite in2="SourceAlpha" operator="out"></feComposite><feGaussianBlur stdDeviation="1"></feGaussianBlur><feOffset dx="1" dy="1" result="afterOffset"></feOffset><feFlood flood-color="#ffffff" flood-opacity="0.8"></feFlood><feComposite in2="afterOffset" operator="in"></feComposite><feMorphology operator="dilate" radius="1"></feMorphology><feComposite in2="SourceAlpha" operator="in"></feComposite></filter><path d="M200 520L487.37 520L487.37 440L200 440L200 340L487.37 340L487.37 20L620 20L620 620L200 620L200 620L200 520Z" id="cOquUxCi" fill="white" fill-opacity="1" filter="url(#shadow11371802)"></path></g></g></g></g></svg>