<?xml version="1.0" encoding="UTF-8" standalone="no"?>
<!DOCTYPE svg PUBLIC "-//W3C//DTD SVG 1.1//EN" "http://www.w3.org/Graphics/SVG/1.1/DTD/svg11.dtd">
<svg version="1.1" xmlns="http://www.w3.org/2000/svg" xmlns:xlink="http://www.w3.org/1999/xlink" preserveAspectRatio="xMidYMid meet" viewBox="0 0 640 640" width="1000" height="1000"><defs><path d="" id="a6pOt3YNJ"></path><path d="M403.37 60.14L404.13 60.25L404.87 60.38L405.61 60.55L406.33 60.74L407.04 60.97L407.74 61.21L408.43 61.49L409.1 61.79L409.76 62.11L410.4 62.46L411.03 62.84L411.65 63.24L412.24 63.66L412.82 64.1L413.38 64.56L413.93 65.05L414.45 65.55L414.95 66.07L415.44 66.62L415.9 67.18L416.34 67.76L416.76 68.35L417.16 68.97L417.54 69.6L417.89 70.24L418.21 70.9L418.51 71.57L418.79 72.26L419.03 72.96L419.26 73.67L419.45 74.39L419.62 75.13L419.75 75.87L419.86 76.63L419.94 77.39L419.98 78.17L420 78.95L420 121.05L419.98 121.83L419.94 122.61L419.86 123.37L419.75 124.13L419.62 124.87L419.45 125.61L419.26 126.33L419.03 127.04L418.79 127.74L418.51 128.43L418.21 129.1L417.89 129.76L417.54 130.4L417.16 131.03L416.76 131.65L416.34 132.24L415.9 132.82L415.44 133.38L414.95 133.93L414.45 134.45L413.93 134.95L413.38 135.44L412.82 135.9L412.24 136.34L411.65 136.76L411.03 137.16L410.4 137.54L409.76 137.89L409.1 138.21L408.43 138.51L407.74 138.79L407.04 139.03L406.33 139.26L405.61 139.45L404.87 139.62L404.13 139.75L403.37 139.86L402.61 139.94L401.83 139.98L401.05 140L180 140L180 220L401.05 220L401.83 220.02L402.61 220.06L403.37 220.14L404.13 220.25L404.87 220.38L405.61 220.55L406.33 220.74L407.04 220.97L407.74 221.21L408.43 221.49L409.1 221.79L409.76 222.11L410.4 222.46L411.03 222.84L411.65 223.24L412.24 223.66L412.82 224.1L413.38 224.56L413.93 225.05L414.45 225.55L414.95 226.07L415.44 226.62L415.9 227.18L416.34 227.76L416.76 228.35L417.16 228.97L417.54 229.6L417.89 230.24L418.21 230.9L418.51 231.57L418.79 232.26L419.03 232.96L419.26 233.67L419.45 234.39L419.62 235.13L419.75 235.87L419.86 236.63L419.94 237.39L419.98 238.17L420 238.95L420 281.05L419.98 281.83L419.94 282.61L419.86 283.37L419.75 284.13L419.62 284.87L419.45 285.61L419.26 286.33L419.03 287.04L418.79 287.74L418.51 288.43L418.21 289.1L417.89 289.76L417.54 290.4L417.16 291.03L416.76 291.65L416.34 292.24L415.9 292.82L415.44 293.38L414.95 293.93L414.45 294.45L413.93 294.95L413.38 295.44L412.82 295.9L412.24 296.34L411.65 296.76L411.03 297.16L410.4 297.54L409.76 297.89L409.1 298.21L408.43 298.51L407.74 298.79L407.04 299.03L406.33 299.26L405.61 299.45L404.87 299.62L404.13 299.75L403.37 299.86L402.61 299.94L401.83 299.98L401.05 300L180 300L180 560L179.98 560.82L179.93 561.64L179.85 562.45L179.74 563.24L179.59 564.03L179.42 564.81L179.21 565.57L178.98 566.32L178.72 567.06L178.43 567.78L178.11 568.5L177.77 569.19L177.4 569.87L177 570.54L176.58 571.18L176.14 571.81L175.67 572.42L175.19 573.02L174.67 573.59L174.14 574.14L173.59 574.67L173.02 575.19L172.42 575.67L171.81 576.14L171.18 576.58L170.54 577L169.87 577.4L169.19 577.77L168.5 578.11L167.78 578.43L167.06 578.72L166.32 578.98L165.57 579.21L164.81 579.42L164.03 579.59L163.24 579.74L162.45 579.85L161.64 579.93L160.82 579.98L160 580L80 580L79.18 579.98L78.36 579.93L77.55 579.85L76.76 579.74L75.97 579.59L75.19 579.42L74.43 579.21L73.68 578.98L72.94 578.72L72.22 578.43L71.5 578.11L70.81 577.77L70.13 577.4L69.46 577L68.82 576.58L68.19 576.14L67.58 575.67L66.98 575.19L66.41 574.67L65.86 574.14L65.33 573.59L64.81 573.02L64.33 572.42L63.86 571.81L63.42 571.18L63 570.54L62.6 569.87L62.23 569.19L61.89 568.5L61.57 567.78L61.28 567.06L61.02 566.32L60.79 565.57L60.58 564.81L60.41 564.03L60.26 563.24L60.15 562.45L60.07 561.64L60.02 560.82L60 560L60 78.95L60.02 78.17L60.06 77.39L60.14 76.63L60.25 75.87L60.38 75.13L60.55 74.39L60.74 73.67L60.97 72.96L61.21 72.26L61.49 71.57L61.79 70.9L62.11 70.24L62.46 69.6L62.84 68.97L63.24 68.35L63.66 67.76L64.1 67.18L64.56 66.62L65.05 66.07L65.55 65.55L66.07 65.05L66.62 64.56L67.18 64.1L67.76 63.66L68.35 63.24L68.97 62.84L69.6 62.46L70.24 62.11L70.9 61.79L71.57 61.49L72.26 61.21L72.96 60.97L73.67 60.74L74.39 60.55L75.13 60.38L75.87 60.25L76.63 60.14L77.39 60.06L78.17 60.02L78.95 60L401.05 60L401.83 60.02L402.61 60.06L402.61 60.06L403.37 60.14Z" id="a14AzgfFv"></path><path d="M562.45 60.15L563.24 60.26L564.03 60.41L564.81 60.58L565.57 60.79L566.32 61.02L567.06 61.28L567.78 61.57L568.5 61.89L569.19 62.23L569.87 62.6L570.54 63L571.18 63.42L571.81 63.86L572.42 64.33L573.02 64.81L573.59 65.33L574.14 65.86L574.67 66.41L575.19 66.98L575.67 67.58L576.14 68.19L576.58 68.82L577 69.46L577.4 70.13L577.77 70.81L578.11 71.5L578.43 72.22L578.72 72.94L578.98 73.68L579.21 74.43L579.42 75.19L579.59 75.97L579.74 76.76L579.85 77.55L579.93 78.36L579.98 79.18L580 80L580 561.05L579.98 561.83L579.94 562.61L579.86 563.37L579.75 564.13L579.62 564.87L579.45 565.61L579.26 566.33L579.03 567.04L578.79 567.74L578.51 568.43L578.21 569.1L577.89 569.76L577.54 570.4L577.16 571.03L576.76 571.65L576.34 572.24L575.9 572.82L575.44 573.38L574.95 573.93L574.45 574.45L573.93 574.95L573.38 575.44L572.82 575.9L572.24 576.34L571.65 576.76L571.03 577.16L570.4 577.54L569.76 577.89L569.1 578.21L568.43 578.51L567.74 578.79L567.04 579.03L566.33 579.26L565.61 579.45L564.87 579.62L564.13 579.75L563.37 579.86L562.61 579.94L561.83 579.98L561.05 580L238.95 580L238.17 579.98L237.39 579.94L236.63 579.86L235.87 579.75L235.13 579.62L234.39 579.45L233.67 579.26L232.96 579.03L232.26 578.79L231.57 578.51L230.9 578.21L230.24 577.89L229.6 577.54L228.97 577.16L228.35 576.76L227.76 576.34L227.18 575.9L226.62 575.44L226.07 574.95L225.55 574.45L225.05 573.93L224.56 573.38L224.1 572.82L223.66 572.24L223.24 571.65L222.84 571.03L222.46 570.4L222.11 569.76L221.79 569.1L221.49 568.43L221.21 567.74L220.97 567.04L220.74 566.33L220.55 565.61L220.38 564.87L220.25 564.13L220.14 563.37L220.06 562.61L220.02 561.83L220 561.05L220 518.95L220.02 518.17L220.06 517.39L220.14 516.63L220.25 515.87L220.38 515.13L220.55 514.39L220.74 513.67L220.97 512.96L221.21 512.26L221.49 511.57L221.79 510.9L222.11 510.24L222.46 509.6L222.84 508.97L223.24 508.35L223.66 507.76L224.1 507.18L224.56 506.62L225.05 506.07L225.55 505.55L226.07 505.05L226.62 504.56L227.18 504.1L227.76 503.66L228.35 503.24L228.97 502.84L229.6 502.46L230.24 502.11L230.9 501.79L231.57 501.49L232.26 501.21L232.96 500.97L233.67 500.74L234.39 500.55L235.13 500.38L235.87 500.25L236.63 500.14L237.39 500.06L238.17 500.02L238.95 500L460 500L460 420L238.95 420L238.17 419.98L237.39 419.94L236.63 419.86L235.87 419.75L235.13 419.62L234.39 419.45L233.67 419.26L232.96 419.03L232.26 418.79L231.57 418.51L230.9 418.21L230.24 417.89L229.6 417.54L228.97 417.16L228.35 416.76L227.76 416.34L227.18 415.9L226.62 415.44L226.07 414.95L225.55 414.45L225.05 413.93L224.56 413.38L224.1 412.82L223.66 412.24L223.24 411.65L222.84 411.03L222.46 410.4L222.11 409.76L221.79 409.1L221.49 408.43L221.21 407.74L220.97 407.04L220.74 406.33L220.55 405.61L220.38 404.87L220.25 404.13L220.14 403.37L220.06 402.61L220.02 401.83L220 401.05L220 358.95L220.02 358.17L220.06 357.39L220.14 356.63L220.25 355.87L220.38 355.13L220.55 354.39L220.74 353.67L220.97 352.96L221.21 352.26L221.49 351.57L221.79 350.9L222.11 350.24L222.46 349.6L222.84 348.97L223.24 348.35L223.66 347.76L224.1 347.18L224.56 346.62L225.05 346.07L225.55 345.55L226.07 345.05L226.62 344.56L227.18 344.1L227.76 343.66L228.35 343.24L228.97 342.84L229.6 342.46L230.24 342.11L230.9 341.79L231.57 341.49L232.26 341.21L232.96 340.97L233.67 340.74L234.39 340.55L235.13 340.38L235.87 340.25L236.63 340.14L237.39 340.06L238.17 340.02L238.95 340L460 340L460 80L460.02 79.18L460.07 78.36L460.15 77.55L460.26 76.76L460.41 75.97L460.58 75.19L460.79 74.43L461.02 73.68L461.28 72.94L461.57 72.22L461.89 71.5L462.23 70.81L462.6 70.13L463 69.46L463.42 68.82L463.86 68.19L464.33 67.58L464.81 66.98L465.33 66.41L465.86 65.86L466.41 65.33L466.98 64.81L467.58 64.33L468.19 63.86L468.82 63.42L469.46 63L470.13 62.6L470.81 62.23L471.5 61.89L472.22 61.57L472.94 61.28L473.68 61.02L474.43 60.79L475.19 60.58L475.97 60.41L476.76 60.26L477.55 60.15L478.36 60.07L479.18 60.02L480 60L560 60L560.82 60.02L561.64 60.07L561.64 60.07L562.45 60.15Z" id="hLxT8OI0K"></path></defs><g><g><g><g><use xlink:href="#a6pOt3YNJ" opacity="1" fill-opacity="0" stroke="#000000" stroke-width="1" stroke-opacity="1"></use></g></g><g><g><filter id="shadow4661460" x="35" y="35" width="415" height="575" filterUnits="userSpaceOnUse" primitiveUnits="userSpaceOnUse"><feFlood></feFlood><feComposite in2="SourceAlpha" operator="in"></feComposite><feGaussianBlur stdDeviation="2.24"></feGaussianBlur><feOffset dx="5" dy="5" result="afterOffset"></feOffset><feFlood flood-color="#000000" flood-opacity="0.5"></feFlood><feComposite in2="afterOffset" operator="in"></feComposite><feMorphology operator="dilate" radius="5"></feMorphology><feComposite in2="SourceAlpha" operator="out"></feComposite></filter><path d="M403.37 60.14L404.13 60.25L404.87 60.38L405.61 60.55L406.33 60.74L407.04 60.97L407.74 61.21L408.43 61.49L409.1 61.79L409.76 62.11L410.4 62.46L411.03 62.84L411.65 63.24L412.24 63.66L412.82 64.1L413.38 64.56L413.93 65.05L414.45 65.55L414.95 66.07L415.44 66.62L415.9 67.18L416.34 67.76L416.76 68.35L417.16 68.97L417.54 69.6L417.89 70.24L418.21 70.9L418.51 71.57L418.79 72.26L419.03 72.96L419.26 73.67L419.45 74.39L419.62 75.13L419.75 75.87L419.86 76.63L419.94 77.39L419.98 78.17L420 78.95L420 121.05L419.98 121.83L419.94 122.61L419.86 123.37L419.75 124.13L419.62 124.87L419.45 125.61L419.26 126.33L419.03 127.04L418.79 127.74L418.51 128.43L418.21 129.1L417.89 129.76L417.54 130.4L417.16 131.03L416.76 131.65L416.34 132.24L415.9 132.82L415.44 133.38L414.95 133.93L414.45 134.45L413.93 134.95L413.38 135.44L412.82 135.9L412.24 136.34L411.65 136.76L411.03 137.16L410.4 137.54L409.76 137.89L409.1 138.21L408.43 138.51L407.74 138.79L407.04 139.03L406.33 139.26L405.61 139.45L404.87 139.62L404.13 139.75L403.37 139.86L402.61 139.94L401.83 139.98L401.05 140L180 140L180 220L401.05 220L401.83 220.02L402.61 220.06L403.37 220.14L404.13 220.25L404.87 220.38L405.61 220.55L406.33 220.74L407.04 220.97L407.74 221.21L408.43 221.49L409.1 221.79L409.76 222.11L410.4 222.46L411.03 222.84L411.65 223.24L412.24 223.66L412.82 224.1L413.38 224.56L413.93 225.05L414.45 225.55L414.95 226.07L415.44 226.62L415.9 227.18L416.34 227.76L416.76 228.35L417.16 228.97L417.54 229.6L417.89 230.24L418.21 230.9L418.51 231.57L418.79 232.26L419.03 232.96L419.26 233.67L419.45 234.39L419.62 235.13L419.75 235.87L419.86 236.63L419.94 237.39L419.98 238.17L420 238.95L420 281.05L419.98 281.83L419.94 282.61L419.86 283.37L419.75 284.13L419.62 284.87L419.45 285.61L419.26 286.33L419.03 287.04L418.79 287.74L418.51 288.43L418.21 289.1L417.89 289.76L417.54 290.4L417.16 291.03L416.76 291.65L416.34 292.24L415.9 292.82L415.44 293.38L414.95 293.93L414.45 294.45L413.93 294.95L413.38 295.44L412.82 295.9L412.24 296.34L411.65 296.76L411.03 297.16L410.4 297.54L409.76 297.89L409.1 298.21L408.43 298.51L407.74 298.79L407.04 299.03L406.33 299.26L405.61 299.45L404.87 299.62L404.13 299.75L403.37 299.86L402.61 299.94L401.83 299.98L401.05 300L180 300L180 560L179.98 560.82L179.93 561.64L179.85 562.45L179.74 563.24L179.59 564.03L179.42 564.81L179.21 565.57L178.98 566.32L178.72 567.06L178.43 567.78L178.11 568.5L177.77 569.19L177.4 569.87L177 570.54L176.58 571.18L176.14 571.81L175.67 572.42L175.19 573.02L174.67 573.59L174.14 574.14L173.59 574.67L173.02 575.19L172.42 575.67L171.81 576.14L171.18 576.58L170.54 577L169.87 577.4L169.19 577.77L168.5 578.11L167.78 578.43L167.06 578.72L166.32 578.98L165.57 579.21L164.81 579.42L164.03 579.59L163.24 579.74L162.45 579.85L161.64 579.93L160.82 579.98L160 580L80 580L79.18 579.98L78.36 579.93L77.55 579.85L76.76 579.74L75.97 579.59L75.19 579.42L74.43 579.21L73.68 578.98L72.94 578.72L72.22 578.43L71.5 578.11L70.81 577.77L70.13 577.4L69.46 577L68.82 576.58L68.19 576.14L67.58 575.67L66.98 575.19L66.41 574.67L65.86 574.14L65.33 573.59L64.81 573.02L64.33 572.42L63.86 571.81L63.42 571.18L63 570.54L62.6 569.87L62.23 569.19L61.89 568.5L61.57 567.78L61.28 567.06L61.02 566.32L60.79 565.57L60.58 564.81L60.41 564.03L60.26 563.24L60.15 562.45L60.07 561.64L60.02 560.82L60 560L60 78.95L60.02 78.17L60.06 77.39L60.14 76.63L60.25 75.87L60.38 75.13L60.55 74.39L60.74 73.67L60.97 72.96L61.21 72.26L61.49 71.57L61.79 70.9L62.11 70.24L62.46 69.6L62.84 68.97L63.24 68.35L63.66 67.76L64.1 67.18L64.56 66.62L65.05 66.07L65.55 65.55L66.07 65.05L66.62 64.56L67.18 64.1L67.76 63.66L68.35 63.24L68.97 62.84L69.6 62.46L70.24 62.11L70.9 61.79L71.57 61.49L72.26 61.21L72.96 60.97L73.67 60.74L74.39 60.55L75.13 60.38L75.87 60.25L76.63 60.14L77.39 60.06L78.17 60.02L78.95 60L401.05 60L401.83 60.02L402.61 60.06L402.61 60.06L403.37 60.14Z" id="aOX02VsZc" fill="white" fill-opacity="1" filter="url(#shadow4661460)"></path></g><use xlink:href="#a14AzgfFv" opacity="1" fill="#25da1e" fill-opacity="1"></use><g><filter id="shadow3176213" x="51" y="51" width="379" height="539" filterUnits="userSpaceOnUse" primitiveUnits="userSpaceOnUse"><feFlood></feFlood><feComposite in2="SourceAlpha" operator="out"></feComposite><feGaussianBlur stdDeviation="1"></feGaussianBlur><feOffset dx="1" dy="1" result="afterOffset"></feOffset><feFlood flood-color="#ffffff" flood-opacity="0.8"></feFlood><feComposite in2="afterOffset" operator="in"></feComposite><feMorphology operator="dilate" radius="1"></feMorphology><feComposite in2="SourceAlpha" operator="in"></feComposite></filter><path d="M403.37 60.14L404.13 60.25L404.87 60.38L405.61 60.55L406.33 60.74L407.04 60.97L407.74 61.21L408.43 61.49L409.1 61.79L409.76 62.11L410.4 62.46L411.03 62.84L411.65 63.24L412.24 63.66L412.82 64.1L413.38 64.56L413.93 65.05L414.45 65.55L414.95 66.07L415.44 66.62L415.9 67.18L416.34 67.76L416.76 68.35L417.16 68.97L417.54 69.6L417.89 70.24L418.21 70.9L418.51 71.57L418.79 72.26L419.03 72.96L419.26 73.67L419.45 74.39L419.62 75.13L419.75 75.87L419.86 76.63L419.94 77.39L419.98 78.17L420 78.95L420 121.05L419.98 121.83L419.94 122.61L419.86 123.37L419.75 124.13L419.62 124.87L419.45 125.61L419.26 126.33L419.03 127.04L418.79 127.74L418.51 128.43L418.21 129.1L417.89 129.76L417.54 130.4L417.16 131.03L416.76 131.65L416.34 132.24L415.9 132.82L415.44 133.38L414.95 133.93L414.45 134.45L413.93 134.95L413.38 135.44L412.82 135.9L412.24 136.34L411.65 136.76L411.03 137.16L410.4 137.54L409.76 137.89L409.1 138.21L408.43 138.51L407.74 138.79L407.04 139.03L406.33 139.26L405.61 139.45L404.87 139.62L404.13 139.75L403.37 139.86L402.61 139.94L401.83 139.98L401.05 140L180 140L180 220L401.05 220L401.83 220.02L402.61 220.06L403.37 220.14L404.13 220.25L404.87 220.38L405.61 220.55L406.33 220.74L407.04 220.97L407.74 221.21L408.43 221.49L409.1 221.79L409.76 222.11L410.4 222.46L411.03 222.84L411.65 223.24L412.24 223.66L412.82 224.1L413.38 224.56L413.93 225.05L414.45 225.55L414.95 226.07L415.44 226.62L415.9 227.18L416.34 227.76L416.76 228.35L417.16 228.97L417.54 229.6L417.89 230.24L418.21 230.9L418.51 231.57L418.79 232.26L419.03 232.96L419.26 233.67L419.45 234.39L419.62 235.13L419.75 235.87L419.86 236.63L419.94 237.39L419.98 238.17L420 238.95L420 281.05L419.98 281.83L419.94 282.61L419.86 283.37L419.75 284.13L419.62 284.87L419.45 285.61L419.26 286.33L419.03 287.04L418.79 287.74L418.51 288.43L418.21 289.1L417.89 289.76L417.54 290.4L417.16 291.03L416.76 291.65L416.34 292.24L415.9 292.82L415.44 293.38L414.95 293.93L414.45 294.45L413.93 294.95L413.38 295.44L412.82 295.9L412.24 296.34L411.65 296.76L411.03 297.16L410.4 297.54L409.76 297.89L409.1 298.21L408.43 298.51L407.74 298.79L407.04 299.03L406.33 299.26L405.61 299.45L404.87 299.62L404.13 299.75L403.37 299.86L402.61 299.94L401.83 299.98L401.05 300L180 300L180 560L179.98 560.82L179.93 561.64L179.85 562.45L179.74 563.24L179.59 564.03L179.42 564.81L179.21 565.57L178.98 566.32L178.72 567.06L178.43 567.78L178.11 568.5L177.77 569.19L177.4 569.87L177 570.54L176.58 571.18L176.14 571.81L175.67 572.42L175.19 573.02L174.67 573.59L174.14 574.14L173.59 574.67L173.02 575.19L172.42 575.67L171.81 576.14L171.18 576.58L170.54 577L169.87 577.4L169.19 577.77L168.5 578.11L167.78 578.43L167.06 578.72L166.32 578.98L165.57 579.21L164.81 579.42L164.03 579.59L163.24 579.74L162.45 579.85L161.64 579.93L160.82 579.98L160 580L80 580L79.18 579.98L78.36 579.93L77.55 579.85L76.76 579.74L75.97 579.59L75.19 579.42L74.43 579.21L73.68 578.98L72.94 578.72L72.22 578.43L71.5 578.11L70.81 577.77L70.13 577.4L69.46 577L68.82 576.58L68.19 576.14L67.58 575.67L66.98 575.19L66.41 574.67L65.86 574.14L65.33 573.59L64.81 573.02L64.33 572.42L63.86 571.81L63.42 571.18L63 570.54L62.6 569.87L62.23 569.19L61.89 568.5L61.57 567.78L61.28 567.06L61.02 566.32L60.79 565.57L60.58 564.81L60.41 564.03L60.26 563.24L60.15 562.45L60.07 561.64L60.02 560.82L60 560L60 78.95L60.02 78.17L60.06 77.39L60.14 76.63L60.25 75.87L60.38 75.13L60.55 74.39L60.74 73.67L60.97 72.96L61.21 72.26L61.49 71.57L61.79 70.9L62.11 70.24L62.46 69.6L62.84 68.97L63.24 68.35L63.66 67.76L64.1 67.18L64.56 66.62L65.05 66.07L65.55 65.55L66.07 65.05L66.62 64.56L67.18 64.1L67.76 63.66L68.35 63.24L68.97 62.84L69.6 62.46L70.24 62.11L70.9 61.79L71.57 61.49L72.26 61.21L72.96 60.97L73.67 60.74L74.39 60.55L75.13 60.38L75.87 60.25L76.63 60.14L77.39 60.06L78.17 60.02L78.95 60L401.05 60L401.83 60.02L402.61 60.06L402.61 60.06L403.37 60.14Z" id="c3rEumErXu" fill="white" fill-opacity="1" filter="url(#shadow3176213)"></path></g></g><g><g><filter id="shadow2584844" x="195" y="35" width="415" height="575" filterUnits="userSpaceOnUse" primitiveUnits="userSpaceOnUse"><feFlood></feFlood><feComposite in2="SourceAlpha" operator="in"></feComposite><feGaussianBlur stdDeviation="2.24"></feGaussianBlur><feOffset dx="5" dy="5" result="afterOffset"></feOffset><feFlood flood-color="#000000" flood-opacity="0.5"></feFlood><feComposite in2="afterOffset" operator="in"></feComposite><feMorphology operator="dilate" radius="5"></feMorphology><feComposite in2="SourceAlpha" operator="out"></feComposite></filter><path d="M562.45 60.15L563.24 60.26L564.03 60.41L564.81 60.58L565.57 60.79L566.32 61.02L567.06 61.28L567.78 61.57L568.5 61.89L569.19 62.23L569.87 62.6L570.54 63L571.18 63.42L571.81 63.86L572.42 64.33L573.02 64.81L573.59 65.33L574.14 65.86L574.67 66.41L575.19 66.98L575.67 67.58L576.14 68.19L576.58 68.82L577 69.46L577.4 70.13L577.77 70.81L578.11 71.5L578.43 72.22L578.72 72.94L578.98 73.68L579.21 74.43L579.42 75.19L579.59 75.97L579.74 76.76L579.85 77.55L579.93 78.36L579.98 79.18L580 80L580 561.05L579.98 561.83L579.94 562.61L579.86 563.37L579.75 564.13L579.62 564.87L579.45 565.61L579.26 566.33L579.03 567.04L578.79 567.74L578.51 568.43L578.21 569.1L577.89 569.76L577.54 570.4L577.16 571.03L576.76 571.65L576.34 572.24L575.9 572.82L575.44 573.38L574.95 573.93L574.45 574.45L573.93 574.95L573.38 575.44L572.82 575.9L572.24 576.34L571.65 576.76L571.03 577.16L570.4 577.54L569.76 577.89L569.1 578.21L568.43 578.51L567.74 578.79L567.04 579.03L566.33 579.26L565.61 579.45L564.87 579.62L564.13 579.75L563.37 579.86L562.61 579.94L561.83 579.98L561.05 580L238.95 580L238.17 579.98L237.39 579.94L236.63 579.86L235.87 579.75L235.13 579.62L234.39 579.45L233.67 579.26L232.96 579.03L232.26 578.79L231.57 578.51L230.9 578.21L230.24 577.89L229.6 577.54L228.97 577.16L228.35 576.76L227.76 576.34L227.18 575.9L226.62 575.44L226.07 574.95L225.55 574.45L225.05 573.93L224.56 573.38L224.1 572.82L223.66 572.24L223.24 571.65L222.84 571.03L222.46 570.4L222.11 569.76L221.79 569.1L221.49 568.43L221.21 567.74L220.97 567.04L220.74 566.33L220.55 565.61L220.38 564.87L220.25 564.13L220.14 563.37L220.06 562.61L220.02 561.83L220 561.05L220 518.95L220.02 518.17L220.06 517.39L220.14 516.63L220.25 515.87L220.38 515.13L220.55 514.39L220.74 513.67L220.97 512.96L221.21 512.26L221.49 511.57L221.79 510.9L222.11 510.24L222.46 509.6L222.84 508.97L223.24 508.35L223.66 507.76L224.1 507.18L224.56 506.62L225.05 506.07L225.55 505.55L226.07 505.05L226.62 504.56L227.18 504.1L227.76 503.66L228.35 503.24L228.97 502.84L229.6 502.46L230.24 502.11L230.9 501.79L231.57 501.49L232.26 501.21L232.96 500.97L233.67 500.74L234.39 500.55L235.13 500.38L235.87 500.25L236.63 500.14L237.39 500.06L238.17 500.02L238.95 500L460 500L460 420L238.95 420L238.17 419.98L237.39 419.94L236.63 419.86L235.87 419.75L235.13 419.62L234.39 419.45L233.67 419.26L232.96 419.03L232.26 418.79L231.57 418.51L230.9 418.21L230.24 417.89L229.6 417.54L228.97 417.16L228.35 416.76L227.76 416.34L227.18 415.9L226.62 415.44L226.07 414.95L225.55 414.45L225.05 413.93L224.56 413.38L224.1 412.82L223.66 412.24L223.24 411.65L222.84 411.03L222.46 410.4L222.11 409.76L221.79 409.1L221.49 408.43L221.21 407.74L220.97 407.04L220.74 406.33L220.55 405.61L220.38 404.87L220.25 404.13L220.14 403.37L220.06 402.61L220.02 401.83L220 401.05L220 358.95L220.02 358.17L220.06 357.39L220.14 356.63L220.25 355.87L220.38 355.13L220.55 354.39L220.74 353.67L220.97 352.96L221.21 352.26L221.49 351.57L221.79 350.9L222.11 350.24L222.46 349.6L222.84 348.97L223.24 348.35L223.66 347.76L224.1 347.18L224.56 346.62L225.05 346.07L225.55 345.55L226.07 345.05L226.62 344.56L227.18 344.1L227.76 343.66L228.35 343.24L228.97 342.84L229.6 342.46L230.24 342.11L230.9 341.79L231.57 341.49L232.26 341.21L232.96 340.97L233.67 340.74L234.39 340.55L235.13 340.38L235.87 340.25L236.63 340.14L237.39 340.06L238.17 340.02L238.95 340L460 340L460 80L460.02 79.18L460.07 78.36L460.15 77.55L460.26 76.76L460.41 75.97L460.58 75.19L460.79 74.43L461.02 73.68L461.28 72.94L461.57 72.22L461.89 71.5L462.23 70.81L462.6 70.13L463 69.46L463.42 68.82L463.86 68.19L464.33 67.58L464.81 66.98L465.33 66.41L465.86 65.86L466.41 65.33L466.98 64.81L467.58 64.33L468.19 63.86L468.82 63.42L469.46 63L470.13 62.6L470.81 62.23L471.5 61.89L472.22 61.57L472.94 61.28L473.68 61.02L474.43 60.79L475.19 60.58L475.97 60.41L476.76 60.26L477.55 60.15L478.36 60.07L479.18 60.02L480 60L560 60L560.82 60.02L561.64 60.07L561.64 60.07L562.45 60.15Z" id="a8yDkAgCv" fill="white" fill-opacity="1" filter="url(#shadow2584844)"></path></g><use xlink:href="#hLxT8OI0K" opacity="1" fill="#0033fd" fill-opacity="1"></use><g><filter id="shadow9291899" x="211" y="51" width="379" height="539" filterUnits="userSpaceOnUse" primitiveUnits="userSpaceOnUse"><feFlood></feFlood><feComposite in2="SourceAlpha" operator="out"></feComposite><feGaussianBlur stdDeviation="1"></feGaussianBlur><feOffset dx="1" dy="1" result="afterOffset"></feOffset><feFlood flood-color="#ffffff" flood-opacity="0.8"></feFlood><feComposite in2="afterOffset" operator="in"></feComposite><feMorphology operator="dilate" radius="1"></feMorphology><feComposite in2="SourceAlpha" operator="in"></feComposite></filter><path d="M562.45 60.15L563.24 60.26L564.03 60.41L564.81 60.58L565.57 60.79L566.32 61.02L567.06 61.28L567.78 61.57L568.5 61.89L569.19 62.23L569.87 62.6L570.54 63L571.18 63.42L571.81 63.86L572.42 64.33L573.02 64.81L573.59 65.33L574.14 65.86L574.67 66.41L575.19 66.98L575.67 67.58L576.14 68.19L576.58 68.82L577 69.46L577.4 70.13L577.77 70.81L578.11 71.5L578.43 72.22L578.72 72.94L578.98 73.68L579.21 74.43L579.42 75.19L579.59 75.97L579.74 76.76L579.85 77.55L579.93 78.36L579.98 79.18L580 80L580 561.05L579.98 561.83L579.94 562.61L579.86 563.37L579.75 564.13L579.62 564.87L579.45 565.61L579.26 566.33L579.03 567.04L578.79 567.74L578.51 568.43L578.21 569.1L577.89 569.76L577.54 570.4L577.16 571.03L576.76 571.65L576.34 572.24L575.9 572.82L575.44 573.38L574.95 573.93L574.45 574.45L573.93 574.95L573.38 575.44L572.82 575.9L572.24 576.34L571.65 576.76L571.03 577.16L570.4 577.54L569.76 577.89L569.1 578.21L568.43 578.51L567.74 578.79L567.04 579.03L566.33 579.26L565.61 579.45L564.87 579.62L564.13 579.75L563.37 579.86L562.61 579.94L561.83 579.98L561.05 580L238.95 580L238.17 579.98L237.39 579.94L236.63 579.86L235.87 579.75L235.13 579.62L234.39 579.45L233.67 579.26L232.96 579.03L232.26 578.79L231.57 578.51L230.9 578.21L230.24 577.89L229.6 577.54L228.97 577.16L228.35 576.76L227.76 576.34L227.18 575.9L226.62 575.44L226.07 574.95L225.55 574.45L225.05 573.93L224.56 573.38L224.1 572.82L223.66 572.24L223.24 571.65L222.84 571.03L222.46 570.4L222.11 569.76L221.79 569.1L221.49 568.43L221.21 567.74L220.97 567.04L220.74 566.33L220.55 565.61L220.38 564.87L220.25 564.13L220.14 563.37L220.06 562.61L220.02 561.83L220 561.05L220 518.95L220.02 518.17L220.06 517.39L220.14 516.63L220.25 515.87L220.38 515.13L220.55 514.39L220.74 513.67L220.97 512.96L221.21 512.26L221.49 511.57L221.79 510.9L222.11 510.24L222.46 509.6L222.84 508.97L223.24 508.35L223.66 507.76L224.1 507.18L224.56 506.62L225.05 506.07L225.55 505.55L226.07 505.05L226.62 504.56L227.18 504.1L227.76 503.66L228.35 503.24L228.97 502.84L229.6 502.46L230.24 502.11L230.9 501.79L231.57 501.49L232.26 501.21L232.96 500.97L233.67 500.74L234.39 500.55L235.13 500.38L235.87 500.25L236.63 500.14L237.39 500.06L238.17 500.02L238.95 500L460 500L460 420L238.95 420L238.17 419.98L237.39 419.94L236.63 419.86L235.87 419.75L235.13 419.62L234.39 419.45L233.67 419.26L232.96 419.03L232.26 418.79L231.57 418.51L230.9 418.21L230.24 417.89L229.6 417.54L228.97 417.16L228.35 416.76L227.76 416.34L227.18 415.9L226.62 415.44L226.07 414.95L225.55 414.45L225.05 413.93L224.56 413.38L224.1 412.82L223.66 412.24L223.24 411.65L222.84 411.03L222.46 410.4L222.11 409.76L221.79 409.1L221.49 408.43L221.21 407.74L220.97 407.04L220.74 406.33L220.55 405.61L220.38 404.87L220.25 404.13L220.14 403.37L220.06 402.61L220.02 401.83L220 401.05L220 358.95L220.02 358.17L220.06 357.39L220.14 356.63L220.25 355.87L220.38 355.13L220.55 354.39L220.74 353.67L220.97 352.96L221.21 352.26L221.49 351.57L221.79 350.9L222.11 350.24L222.46 349.6L222.84 348.97L223.24 348.35L223.66 347.76L224.1 347.18L224.56 346.62L225.05 346.07L225.55 345.55L226.07 345.05L226.62 344.56L227.18 344.1L227.76 343.66L228.35 343.24L228.97 342.84L229.6 342.46L230.24 342.11L230.9 341.79L231.57 341.49L232.26 341.21L232.96 340.97L233.67 340.74L234.39 340.55L235.13 340.38L235.87 340.25L236.63 340.14L237.39 340.06L238.17 340.02L238.95 340L460 340L460 80L460.02 79.18L460.07 78.36L460.15 77.55L460.26 76.76L460.41 75.97L460.58 75.19L460.79 74.43L461.02 73.68L461.28 72.94L461.57 72.22L461.89 71.5L462.23 70.81L462.6 70.13L463 69.46L463.42 68.82L463.86 68.19L464.33 67.58L464.81 66.98L465.33 66.41L465.86 65.86L466.41 65.33L466.98 64.81L467.58 64.33L468.19 63.86L468.82 63.42L469.46 63L470.13 62.6L470.81 62.23L471.5 61.89L472.22 61.57L472.94 61.28L473.68 61.02L474.43 60.79L475.19 60.58L475.97 60.41L476.76 60.26L477.55 60.15L478.36 60.07L479.18 60.02L480 60L560 60L560.82 60.02L561.64 60.07L561.64 60.07L562.45 60.15Z" id="b1ld1FU4dK" fill="white" fill-opacity="1" filter="url(#shadow9291899)"></path></g></g></g></g></svg>